<?xml version="1.0" encoding="UTF-8"?>
<svg xmlns="http://www.w3.org/2000/svg" fill="none" height="20" viewBox="0 0 228 20" width="228">
<g clip-path="url(#clip0_4224_35995)">
<path d="M9.386 0C14.7996 0 18.7434 4.08009 18.7434 10.0012C18.7434 15.9224 14.7996 20 9.386 20C3.9724 20 0 15.9199 0 10.0012C0 4.08253 3.9724 0 9.386 0ZM9.386 2.29764C5.49945 2.29764 2.76273 5.40593 2.76273 10.0012C2.76273 14.5965 5.49945 17.7048 9.386 17.7048C13.2726 17.7048 16.0093 14.5965 16.0093 10.0012C16.0093 5.40593 13.2726 2.29764 9.386 2.29764Z" fill="white"/>
<path d="M24.3027 19.7021H21.5374V0.297852H29.4275C33.8032 0.297852 36.5971 2.21703 36.5971 5.91865C36.5971 9.02694 34.581 10.9193 31.298 11.432L37.0289 19.7021H33.8604L28.3037 11.5663H24.3001V19.7021H24.3027ZM29.2844 9.32483C32.2215 9.32483 33.863 8.10886 33.863 5.91865C33.863 3.72845 32.2215 2.53934 29.2844 2.53934H24.3027V9.32239H29.2844V9.32483Z" fill="white"/>
<path d="M42.5307 19.7021H39.7654V0.297852H42.5307V19.7021Z" fill="white"/>
<path d="M60.4992 16.8111C59.6642 18.596 57.4477 20 54.4821 20C49.2116 20 45.2964 15.9468 45.2964 10.0549C45.2964 4.16311 49.2402 0 54.6538 0C58.6262 0 61.4487 2.02661 62.687 5.37907L60.0388 6.18972C59.2895 3.73092 57.3905 2.29764 54.6824 2.29764C50.7672 2.29764 48.0591 5.43279 48.0591 10.0281C48.0591 14.6234 50.7646 17.7585 54.711 17.7585C58.0513 17.7585 60.2963 15.3534 60.3535 11.8935H54.4222V9.62276H63.033V19.7046H60.4992V16.8136V16.8111Z" fill="white"/>
<path d="M69.7133 19.7021H66.948V0.297852H69.7133V19.7021Z" fill="white"/>
<path d="M90.3037 19.7021H87.913L76.6253 4.08005V19.7021H73.9771V0.297852H76.8855L87.6268 15.2972V0.297852H90.3037V19.7021Z" fill="white"/>
<path d="M103.347 0.297852L111.324 19.7021H108.53L106.428 14.594H97.1561L95.0827 19.7021H92.3174L100.296 0.297852H103.347ZM98.077 12.3257H105.507L101.763 3.21813L98.077 12.3257Z" fill="white"/>
<path d="M113.339 0.297852H116.105V17.4313H126.414V19.7021H113.342V0.297852H113.339Z" fill="white"/>
<path d="M136.807 14.0813C138.103 16.4058 140.436 17.7561 143.113 17.7561C145.79 17.7561 147.863 16.5132 147.863 14.2962C147.863 11.9448 145.473 11.5395 142.335 10.8363C139.081 10.1062 135.858 9.26871 135.858 5.6208C135.858 2.21463 138.995 0 142.913 0C146.513 0 149.104 1.62129 150.343 3.8115L148.241 5.37907C147.174 3.51361 145.535 2.24393 142.856 2.24393C140.35 2.24393 138.537 3.54047 138.537 5.40593C138.537 7.45941 140.467 7.89159 143.376 8.54108C146.802 9.29801 150.574 9.97436 150.574 14.0813C150.574 17.7024 147.148 20 143.058 20C139.487 20 136.061 18.325 134.651 15.7026L136.81 14.0813H136.807Z" fill="white"/>
<path d="M166.929 0.297852V2.56864H156.159V8.54104H165.288V10.8118H156.159V17.4337H166.929V19.7045H153.425V0.297852H166.929Z" fill="white"/>
<path d="M173.032 19.7021H170.267V0.297852H178.157C182.533 0.297852 185.327 2.21703 185.327 5.91865C185.327 9.02694 183.311 10.9193 180.028 11.432L185.759 19.7021H182.59L177.033 11.5663H173.03V19.7021H173.032ZM178.014 9.32483C180.951 9.32483 182.593 8.10886 182.593 5.91865C182.593 3.72845 180.951 2.53934 178.014 2.53934H173.032V9.32239H178.014V9.32483Z" fill="white"/>
<path d="M191.404 19.7021H188.638V0.297852H191.404V19.7021Z" fill="white"/>
<path d="M209.172 0.297852V2.56864H198.402V8.54104H207.53V10.8118H198.402V17.4337H209.172V19.7045H195.668V0.297852H209.172Z" fill="white"/>
<path d="M212.369 14.0813C213.664 16.4058 215.998 17.7561 218.675 17.7561C221.352 17.7561 223.425 16.5132 223.425 14.2962C223.425 11.9448 221.034 11.5395 217.897 10.8363C214.642 10.1062 211.419 9.26871 211.419 5.6208C211.419 2.21463 214.557 0 218.474 0C222.075 0 224.666 1.62129 225.904 3.8115L223.802 5.37907C222.735 3.51361 221.097 2.24393 218.417 2.24393C215.912 2.24393 214.099 3.54047 214.099 5.40593C214.099 7.45941 216.029 7.89159 218.937 8.54108C222.363 9.29801 226.136 9.97436 226.136 14.0813C226.136 17.7024 222.709 20 218.62 20C215.048 20 211.622 18.325 210.212 15.7026L212.371 14.0813H212.369Z" fill="white"/>
</g>
<defs>
<clipPath id="clip0_4224_35995">
<rect fill="white" height="20" width="226.133"/>
</clipPath>
</defs>
</svg>