<svg width="84" height="48" viewBox="0 0 84 48" fill="none" xmlns="http://www.w3.org/2000/svg"><rect x="0.5" y="0.5" width="83" height="47" rx="7.5" fill="black" stroke="#949AA4"></rect><path d="M15.93 9.82L13.16 17H14.12L14.84 15.11H18.06L18.79 17H19.76L16.99 9.82H15.93ZM16.44 10.9L17.74 14.27H15.16L16.44 10.9ZM22.6925 17L24.6525 11.77H23.7125L22.2625 15.9L20.7925 11.77H19.8425L21.8025 17H22.6925ZM26.8444 17.09C27.5544 17.09 28.1344 16.82 28.4544 16.41C28.5644 16.91 29.0244 17.1 29.8244 17V16.28C29.4744 16.36 29.2644 16.25 29.2644 15.91V13.36C29.2644 12.24 28.5444 11.67 27.3744 11.67C26.3044 11.67 25.5344 12.28 25.2844 13.13L26.1344 13.35C26.2944 12.77 26.6844 12.46 27.3444 12.46C28.0444 12.46 28.3744 12.8 28.3744 13.4V13.62L27.1044 13.88C25.9344 14.12 25.1244 14.55 25.1244 15.59C25.1244 16.53 25.8944 17.09 26.8444 17.09ZM28.3744 15.22C28.3744 15.89 27.7244 16.36 26.9544 16.36C26.3844 16.36 26.0144 16.06 26.0144 15.55C26.0144 14.92 26.5544 14.7 27.3544 14.54L28.3744 14.32V15.22ZM30.908 10.86H31.888V9.82H30.908V10.86ZM31.848 11.77H30.948V17H31.848V11.77ZM34.4004 9.82H33.5004V17H34.4004V9.82ZM37.3627 17.09C38.0727 17.09 38.6527 16.82 38.9727 16.41C39.0827 16.91 39.5427 17.1 40.3427 17V16.28C39.9927 16.36 39.7827 16.25 39.7827 15.91V13.36C39.7827 12.24 39.0627 11.67 37.8927 11.67C36.8227 11.67 36.0527 12.28 35.8027 13.13L36.6527 13.35C36.8127 12.77 37.2027 12.46 37.8627 12.46C38.5627 12.46 38.8927 12.8 38.8927 13.4V13.62L37.6227 13.88C36.4527 14.12 35.6427 14.55 35.6427 15.59C35.6427 16.53 36.4127 17.09 37.3627 17.09ZM38.8927 15.22C38.8927 15.89 38.2427 16.36 37.4727 16.36C36.9027 16.36 36.5327 16.06 36.5327 15.55C36.5327 14.92 37.0727 14.7 37.8727 14.54L38.8927 14.32V15.22ZM43.9864 17.11C45.4364 17.11 46.2664 15.87 46.2664 14.39C46.2664 12.9 45.4364 11.67 43.9864 11.67C43.2564 11.67 42.6764 12.02 42.3664 12.53V9.82H41.4664V17H42.3664V16.24C42.6764 16.76 43.2564 17.11 43.9864 17.11ZM42.3464 14.21C42.3464 12.99 43.0864 12.46 43.8264 12.46C44.8064 12.46 45.3564 13.26 45.3564 14.39C45.3564 15.51 44.8064 16.32 43.8264 16.32C43.0864 16.32 42.3464 15.78 42.3464 14.58V14.21ZM48.4539 9.82H47.5539V17H48.4539V9.82ZM52.1963 17.11C53.2363 17.11 54.0263 16.54 54.3463 15.61L53.5563 15.33C53.3963 15.95 52.8963 16.33 52.1963 16.33C51.2863 16.33 50.6563 15.63 50.6063 14.53H54.3863V14.23C54.3863 12.78 53.6163 11.67 52.1563 11.67C50.7363 11.67 49.7463 12.83 49.7463 14.39C49.7463 16 50.7463 17.11 52.1963 17.11ZM52.1463 12.44C53.0563 12.44 53.4563 13.1 53.4763 13.84H50.6563C50.8163 12.95 51.3863 12.44 52.1463 12.44ZM62.416 14.39C62.416 12.77 61.416 11.67 59.986 11.67C58.556 11.67 57.556 12.77 57.556 14.39C57.556 16.01 58.556 17.11 59.986 17.11C61.416 17.11 62.416 16.01 62.416 14.39ZM58.466 14.39C58.466 13.19 59.066 12.43 59.986 12.43C60.906 12.43 61.506 13.19 61.506 14.39C61.506 15.58 60.906 16.34 59.986 16.34C59.066 16.34 58.466 15.58 58.466 14.39ZM63.7105 17H64.6105V13.88C64.6105 13.01 65.2705 12.51 65.9205 12.51C66.7005 12.51 67.0105 13.06 67.0105 13.79V17H67.9105V13.55C67.9105 12.44 67.2805 11.67 66.1705 11.67C65.4305 11.67 64.9105 12.05 64.6105 12.48V11.77H63.7105V17Z" fill="white"></path><path d="M19.4826 31.8853L23.131 27.0034H21.6114C20.9313 27.0034 20.4906 27.244 20.131 27.724L18.2023 30.3048L16.342 27.724C15.981 27.244 15.5416 27.0034 14.8603 27.0034H13.3407L16.9422 31.8853L13 37.2079H14.4411C15.1212 37.2079 15.5606 36.9672 15.9215 36.4873L18.201 33.4657L23.5438 40.8499C23.8832 41.3299 24.3442 41.5692 25.0242 41.5692H26.5844L19.4826 31.8853ZM48.6358 37.2041H50.6962V27.0034H48.6358V37.2041ZM32.2882 37.2041H34.3498V27.0034H32.2882V37.2041ZM63.5423 40.8056L71 27.0034H69.8793C69.1992 27.0034 68.6787 27.2035 68.3989 27.724L65.4634 33.1858L62.9218 27.724C62.6685 27.1832 62.1214 27.0034 61.4414 27.0034H60.3624L64.2882 35.3273L60.869 41.5692H61.9885C62.6812 41.5692 63.2422 41.3502 63.5423 40.8094V40.8056ZM36.8079 27.0034V37.2079H38.8683V30.2048C39.509 29.3044 40.4297 28.7447 41.5694 28.7447C43.0891 28.7447 44.1313 29.7046 44.1313 31.6257V36.2277C44.1242 36.3565 44.144 36.4855 44.1895 36.6063C44.2349 36.727 44.305 36.837 44.3953 36.9292C44.4856 37.0215 44.5941 37.0938 44.7139 37.1418C44.8338 37.1898 44.9622 37.2123 45.0912 37.2079H46.1917V31.2648C46.1917 28.6244 44.5112 26.783 42.0696 26.783C40.8851 26.7626 39.7384 27.1999 38.8683 28.0038V27.0034H36.8079ZM54.5156 33.5886C54.5156 35.8098 55.8757 37.3877 58.3147 37.3877C58.822 37.3941 59.3275 37.3267 59.8154 37.1876L59.4 35.3868C59.0916 35.4556 58.7763 35.4891 58.4603 35.4868C57.4599 35.4868 56.5785 34.9474 56.5785 33.5468V28.8396H59.4608L58.6199 27.0034H56.5785V22.9016L54.5181 23.802V27.0034H52.3374V28.8396H54.5181L54.5156 33.5886ZM25.9462 28.8396V37.1977H28.0065V28.8396H30.6482V27.0034H28.0065V26.2436C28.0065 24.5023 29.0475 23.9223 30.0669 23.9223C30.304 23.9213 30.5399 23.955 30.7672 24.0224L31.1877 22.2013C30.7765 22.0577 30.3427 21.9899 29.9074 22.0012C27.3468 22.0012 25.9462 23.9008 25.9462 26.203V27.0034H24.8647L23.5641 28.8396H25.9462Z" fill="white"></path></svg>